<?xml version="1.0" standalone="no"?>
<!DOCTYPE svg PUBLIC "-//W3C//DTD SVG 20010904//EN"
 "http://www.w3.org/TR/2001/REC-SVG-20010904/DTD/svg10.dtd">
<svg version="1.0" xmlns="http://www.w3.org/2000/svg"
 width="500.000000pt" height="639.000000pt" viewBox="0 0 500.000000 639.000000"
 preserveAspectRatio="xMidYMid meet">

<g transform="translate(0.000000,639.000000) scale(0.100000,-0.100000)"
fill="#000000" stroke="none">
<path d="M2780 4374 c-247 -36 -554 -202 -737 -397 -116 -125 -163 -215 -163
-316 0 -49 5 -65 31 -100 34 -48 95 -80 151 -81 72 0 185 58 303 156 81 66
323 224 410 266 112 54 180 67 236 45 29 -11 53 -30 69 -54 23 -33 25 -46 24
-137 0 -116 -20 -176 -94 -287 -108 -161 -393 -389 -554 -444 -62 -21 -88 -15
-94 23 -5 34 25 80 113 171 132 137 158 187 116 225 -32 29 -87 39 -143 26
-97 -24 -199 -160 -229 -306 -12 -58 -11 -64 12 -109 30 -61 73 -85 151 -85
124 0 288 83 503 256 173 138 274 259 350 418 138 292 82 554 -146 676 -88 47
-210 68 -309 54z"/>
<path d="M1910 2952 c-49 -24 -68 -77 -45 -125 34 -73 128 -76 169 -5 24 40
14 89 -25 122 -36 31 -52 32 -99 8z"/>
<path d="M2633 2888 l-53 -10 0 -336 c0 -345 5 -397 37 -441 39 -51 70 -65
149 -69 l74 -4 0 51 c0 50 0 51 -30 51 -19 0 -40 9 -55 25 -25 24 -25 25 -25
230 l0 205 50 0 50 0 0 60 0 60 -50 0 -50 0 0 95 c0 108 7 102 -97 83z"/>
<path d="M3585 2895 c-5 -2 -27 -6 -47 -10 l-38 -6 0 -338 c0 -387 5 -419 67
-470 40 -33 110 -52 161 -44 31 5 32 7 32 54 0 48 -1 49 -30 49 -19 0 -40 9
-55 25 l-25 24 0 361 0 360 -27 -1 c-16 0 -32 -2 -38 -4z"/>
<path d="M1445 2707 c-65 -17 -145 -53 -145 -66 0 -5 9 -30 19 -54 l20 -45 58
24 c121 49 222 21 223 -62 l0 -31 -97 -6 c-165 -8 -239 -52 -270 -156 -48
-168 82 -314 267 -297 70 6 180 53 233 100 l28 24 -7 214 c-7 225 -11 244 -60
293 -61 61 -172 87 -269 62z m175 -453 l0 -85 -47 -21 c-43 -19 -51 -20 -87
-7 -47 16 -86 67 -86 111 0 19 10 40 29 59 28 27 34 29 110 29 l81 0 0 -86z"/>
<path d="M2335 2711 c-47 -12 -112 -48 -155 -88 l-40 -35 0 -279 0 -279 75 0
75 0 0 260 0 260 27 17 c16 11 52 19 94 21 l67 4 25 56 c14 31 23 60 21 64 -6
10 -148 9 -189 -1z"/>
<path d="M3073 2707 c-128 -48 -190 -173 -181 -367 6 -118 35 -188 103 -248
53 -47 108 -65 198 -64 67 0 171 29 211 57 16 13 16 15 -4 54 -11 23 -25 41
-30 41 -5 0 -29 -8 -52 -17 -62 -25 -165 -24 -200 2 -36 26 -66 88 -70 145
l-3 45 188 3 187 2 0 28 c0 110 -46 236 -102 281 -60 48 -171 65 -245 38z
m132 -113 c19 -8 55 -75 55 -104 0 -19 -6 -20 -99 -20 -55 0 -102 3 -104 8 -9
13 22 87 44 105 21 17 73 23 104 11z"/>
<path d="M1932 2688 l-52 -10 2 -321 3 -322 73 -3 72 -3 0 336 0 335 -22 -1
c-13 -1 -47 -6 -76 -11z"/>
</g>
</svg>
