<?xml version="1.0" standalone="no"?>
<!DOCTYPE svg PUBLIC "-//W3C//DTD SVG 20010904//EN"
 "http://www.w3.org/TR/2001/REC-SVG-20010904/DTD/svg10.dtd">
<svg version="1.0" xmlns="http://www.w3.org/2000/svg"
 width="800.000000pt" height="800.000000pt" viewBox="0 0 800.000000 800.000000"
 preserveAspectRatio="xMidYMid meet">

<g transform="translate(0.000000,800.000000) scale(0.100000,-0.100000)"
fill="#000000" stroke="none">
<path d="M3710 5450 c-1010 -61 -1882 -370 -2309 -819 -140 -147 -214 -275
-272 -470 -20 -68 -18 -261 4 -346 185 -705 1338 -1241 2737 -1272 307 -6 522
4 800 37 1145 138 2016 615 2188 1198 29 97 46 241 34 288 -6 22 -13 60 -17
85 -7 55 -56 186 -92 249 -208 358 -691 671 -1323 855 -258 75 -549 133 -800
160 -80 8 -183 20 -230 25 -124 14 -552 20 -720 10z m711 -240 c828 -64 1508
-286 1922 -627 197 -162 326 -392 327 -581 0 -62 -27 -186 -56 -249 -277 -627
-1580 -1056 -2947 -972 -839 51 -1558 273 -1977 610 -160 128 -256 252 -313
401 -28 76 -31 93 -31 203 0 105 3 129 26 193 44 121 102 207 217 323 374 372
1098 627 1986 698 150 12 692 12 846 1z"/>
<path d="M2560 3999 l0 -489 115 0 115 0 0 272 0 272 56 -85 c30 -46 68 -105
84 -131 l30 -48 80 0 81 0 79 122 c44 67 80 125 80 130 0 4 3 8 8 8 4 0 6
-122 4 -270 l-3 -271 118 3 118 3 0 485 0 485 -115 0 -115 0 -122 -190 c-68
-104 -126 -191 -130 -192 -5 -2 -64 85 -132 191 l-124 195 -113 0 -114 0 0
-490z"/>
<path d="M3640 4370 l0 -120 145 0 145 0 0 -370 0 -370 115 0 115 0 0 370 0
370 150 0 151 0 -3 118 -3 117 -407 3 -408 2 0 -120z"/>
<path d="M4570 4000 l0 -490 115 0 115 0 2 284 3 284 203 -284 203 -284 115 0
114 0 0 489 0 489 -115 1 -115 2 0 -292 0 -291 -32 46 c-89 125 -223 313 -299
418 l-84 118 -112 0 -113 0 0 -490z"/>
</g>
</svg>
