<?xml version="1.0" standalone="no"?>
<!DOCTYPE svg PUBLIC "-//W3C//DTD SVG 20010904//EN"
 "http://www.w3.org/TR/2001/REC-SVG-20010904/DTD/svg10.dtd">
<svg version="1.0" xmlns="http://www.w3.org/2000/svg"
 width="267.000000pt" height="189.000000pt" viewBox="0 0 267.000000 189.000000"
 preserveAspectRatio="xMidYMid meet">

<g transform="translate(0.000000,189.000000) scale(0.100000,-0.100000)"
fill="#000000" stroke="none">
<path d="M1210 1585 c-189 -36 -367 -173 -455 -350 -48 -99 -65 -173 -65 -290
0 -171 53 -310 164 -431 186 -204 463 -272 713 -175 101 40 160 80 241 165
120 126 173 264 173 446 0 116 -20 199 -72 300 -128 250 -417 389 -699 335z
m11 -86 c-125 -63 -216 -180 -247 -316 -13 -60 -14 -77 -4 -83 9 -5 11 -21 8
-47 l-6 -40 40 14 c22 7 44 10 50 7 6 -4 35 -6 64 -5 36 0 54 -3 54 -11 0 -9
3 -9 12 0 17 17 83 15 98 -3 12 -14 15 -14 30 0 9 8 35 15 58 15 32 0 45 -6
61 -26 l21 -27 0 27 c0 16 5 26 15 26 9 0 15 9 15 23 0 31 18 47 53 47 28 0
29 -2 23 -34 -5 -28 -3 -34 14 -39 12 -3 20 -13 20 -27 0 -22 0 -21 31 4 22
18 42 26 70 26 66 0 102 -27 122 -90 3 -8 6 19 6 60 1 83 10 100 53 100 l28 0
0 -150 0 -150 -40 0 -40 0 0 45 0 45 -85 0 c-87 0 -109 -11 -59 -31 20 -7 32
-6 50 6 24 15 66 20 77 9 10 -10 -24 -54 -54 -70 -36 -18 -63 -18 -105 2 -45
21 -67 64 -62 120 3 37 0 44 -14 44 -16 0 -18 -11 -18 -85 0 -82 -1 -85 -23
-85 -38 0 -47 19 -47 97 0 58 -3 73 -15 73 -12 0 -15 -16 -15 -85 l0 -85 -35
0 -35 0 0 69 c0 50 -4 74 -16 85 -8 9 -17 16 -19 16 -2 0 -11 -7 -19 -16 -12
-11 -16 -35 -16 -85 l0 -69 -35 0 -34 0 -3 78 c-3 76 -3 77 -30 80 l-28 3 0
-81 0 -81 -47 0 c-27 1 -65 -2 -86 -5 -26 -4 -45 -1 -62 10 -15 10 -26 12 -30
6 -3 -6 -19 -10 -36 -10 -28 0 -29 -1 -29 -52 0 -57 27 -127 63 -167 25 -27
112 -71 142 -71 11 0 40 -21 65 -46 25 -26 67 -60 95 -76 l50 -30 -55 6 c-108
12 -240 72 -315 144 -84 81 -127 147 -166 254 -26 71 -29 88 -26 191 3 90 8
126 29 185 67 187 220 329 406 376 87 22 98 17 33 -15z m608 -876 c-8 -10 -17
-20 -20 -23 -3 -3 -13 -16 -23 -30 l-18 -25 7 25 c8 28 43 70 58 70 5 0 3 -8
-4 -17z"/>
<path d="M1670 955 c-11 -13 -6 -15 35 -15 41 0 46 2 35 15 -7 8 -23 15 -35
15 -12 0 -28 -7 -35 -15z"/>
<path d="M1022 948 c-29 -29 1 -88 44 -88 27 0 44 19 44 50 0 14 -5 31 -12 38
-15 15 -61 15 -76 0z"/>
</g>
</svg>
